{"title":"Alain Cavalier - Irene (2009) x264","uid":7833605,"size":1365945434,"categoryP":"video","categoryS":"movies","magnet":"?xt=urn:btih:b42ffd5e55c728198152e96379bc1e4bc56ee877&amp;dn=Alain+Cavalier+-+Irene+%282009%29+x264&amp;tr=udp%3A%2F%2Ftracker.openbittorrent.com%3A80&amp;tr=udp%3A%2F%2Fopen.demonii.com%3A1337&amp;tr=udp%3A%2F%2Ftracker.coppersurfer.tk%3A6969&amp;tr=udp%3A%2F%2Fexodus.desync.com%3A6969","seeders":2,"leechers":0,"uploader":"rpessoa","files":2,"time":1353138484,"description":"A video diary shot and recorded by the filmmaker, using little more than his imagination and the happenstance and flow of the everyday, finally layering in a lifetime of memories.\n\n\nGeneral \nUnique ID : 259444361182444869162123437853363558249 (0xC32F2A99DEB3B3CD682AF1BBE7FA5769) \nComplete name : Irene.mkv \nFormat : Matroska \nFormat version : Version 2 \nFile size : 1.27 GiB \nDuration : 1h 21mn \nOverall bit rate : 2 237 Kbps \nWriting application : HandBrake 0.9.8 \nWriting library : libmkv 0.6.5 \n\nVideo \nID : 1 \nFormat : AVC \nFormat/Info : Advanced Video Codec \nFormat profile : &lt;a class=&quot;__cf_email__&quot; href=&quot;/cdn-cgi/l/email-protection&quot; data-cfemail=&quot;276f4e404f676b130917&quot;&gt;[email&amp;#160;protected]&lt;/a&gt;&lt;script cf-hash='f9e31' type=&quot;text/javascript&quot;&gt;\n/* &lt;![CDATA[ */!function(){try{var t=&quot;currentScript&quot;in document?document.currentScript:function(){for(var t=document.getElementsByTagName(&quot;script&quot;),e=t.length;e--;)if(t[e].getAttribute(&quot;cf-hash&quot;))return t[e]}();if(t&amp;&amp;t.previousSibling){var e,r,n,i,c=t.previousSibling,a=c.getAttribute(&quot;data-cfemail&quot;);if(a){for(e=&quot;&quot;,r=parseInt(a.substr(0,2),16),n=2;a.length-n;n+=2)i=parseInt(a.substr(n,2),16)^r,e+=String.fromCharCode(i);e=document.createTextNode(e),c.parentNode.replaceChild(e,c)}}}catch(u){}}();/* ]]&gt; */&lt;/script&gt; \nFormat settings, CABAC : Yes \nFormat settings, ReFrames : 14 frames \nCodec ID : V_MPEG4/ISO/AVC \nDuration : 1h 21mn \nBit rate : 2 001 Kbps \nWidth : 716 pixels \nHeight : 572 pixels \nDisplay aspect ratio : 16:9 \nFrame rate : 25.000 fps \nColor space : YUV \nChroma subsampling : 4:2:0 \nBit depth : 8 bits \nScan type : Progressive \nBits/(Pixel*Frame) : 0.195 \nStream size : 1.14 GiB (89%) \nWriting library : x264 core 120 \nEncoding settings : cabac=1 / ref=14 / deblock=1:-3:-3 / analyse=0x3:0x133 / me=umh / subme=11 / psy=1 / psy_rd=1.10:0.00 / mixed_ref=1 / me_range=32 / chroma_me=1 / trellis=2 / 8x8dct=1 / cqm=0 / deadzone=21,11 / fast_pskip=0 / chroma_qp_offset=-2 / threads=4 / sliced_threads=0 / nr=0 / decimate=1 / interlaced=0 / bluray_compat=0 / constrained_intra=0 / bframes=9 / b_pyramid=2 / b_adapt=2 / b_bias=0 / direct=3 / weightb=1 / open_gop=0 / weightp=2 / keyint=250 / keyint_min=25 / scenecut=40 / intra_refresh=0 / rc_lookahead=60 / rc=crf / mbtree=1 / crf=16.5 / qcomp=0.60 / qpmin=3 / qpmax=69 / qpstep=4 / ip_ratio=1.40 / aq=2:1.00 \nLanguage : English \nDefault : Yes \nForced : No \nColor primaries : BT.601-6 525, BT.1358 525, BT.1700 NTSC, SMPTE 170M \nTransfer characteristics : BT.709-5, BT.1361 \nMatrix coefficients : BT.601-6 525, BT.1358 525, BT.1700 NTSC, SMPTE 170M \n\nAudio \nID : 2 \nFormat : AC-3 \nFormat/Info : Audio Coding 3 \nMode extension : CM (complete main) \nFormat settings, Endianness : Big \nCodec ID : A_AC3 \nDuration : 1h 21mn \nBit rate mode : Constant \nBit rate : 192 Kbps \nChannel(s) : 2 channels \nChannel positions : Front: L R \nSampling rate : 48.0 KHz \nBit depth : 16 bits \nCompression mode : Lossy \nStream size : 112 MiB (9%) \nLanguage : French \nDefault : Yes \nForced : No \n\nMenu \n00:00:00.000 : Chapter 1 \n00:05:51.960 : Chapter 2 \n00:14:03.800 : Chapter 3 \n00:20:36.960 : Chapter 4 \n00:30:09.000 : Chapter 5 \n00:35:09.920 : Chapter 6 \n00:40:58.200 : Chapter 7 \n00:49:29.680 : Chapter 8 \n00:58:40.800 : Chapter 9 \n01:03:39.200 : Chapter 10 \n01:10:59.920 : Chapter 11 \n01:20:01.120 : Chapter 12 \n01:21:24.080 : Chapter 13 \n\nMy rip.\n\nSubs: Portuguese.","torrent":{"xt":"urn:btih:b42ffd5e55c728198152e96379bc1e4bc56ee877","amp;dn":"Alain+Cavalier+-+Irene+%282009%29+x264","amp;tr":["udp%3A%2F%2Ftracker.openbittorrent.com%3A80","udp%3A%2F%2Fopen.demonii.com%3A1337","udp%3A%2F%2Ftracker.coppersurfer.tk%3A6969","udp%3A%2F%2Fexodus.desync.com%3A6969"],"infoHash":"b42ffd5e55c728198152e96379bc1e4bc56ee877","infoHashBuffer":{"type":"Buffer","data":[180,47,253,94,85,199,40,25,129,82,233,99,121,188,30,75,197,110,232,119]},"announce":[],"urlList":[]}}